<svg width="31" height="25" viewBox="0 0 31 25" fill="none" xmlns="http://www.w3.org/2000/svg">
<path d="M2 2H6.90909L10.1982 15.39C10.3104 15.8504 10.6178 16.264 11.0665 16.5583C11.5153 16.8526 12.0768 17.009 12.6527 17H24.5818C25.1578 17.009 25.7193 16.8526 26.168 16.5583C26.6168 16.264 26.9241 15.8504 27.0364 15.39L29 7H8.13636M13.0455 22C13.0455 22.5523 12.496 23 11.8182 23C11.1404 23 10.5909 22.5523 10.5909 22C10.5909 21.4477 11.1404 21 11.8182 21C12.496 21 13.0455 21.4477 13.0455 22ZM26.5455 22C26.5455 22.5523 25.996 23 25.3182 23C24.6404 23 24.0909 22.5523 24.0909 22C24.0909 21.4477 24.6404 21 25.3182 21C25.996 21 26.5455 21.4477 26.5455 22Z" stroke="#303030" stroke-width="2.5" stroke-linecap="round" stroke-linejoin="round"/>
</svg>
