<svg width="26" height="26" viewBox="0 0 26 26" fill="none" xmlns="http://www.w3.org/2000/svg">
<path d="M13.0003 22.7503L11.4295 21.3419C9.60588 19.6989 8.09824 18.2815 6.90658 17.0898C5.71491 15.8982 4.76699 14.8329 4.06283 13.894C3.35866 12.9371 2.86213 12.0614 2.57324 11.2669C2.30241 10.4725 2.16699 9.65998 2.16699 8.82943C2.16699 7.13221 2.73574 5.71484 3.87324 4.57734C5.01074 3.43984 6.4281 2.87109 8.12533 2.87109C9.06422 2.87109 9.95796 3.0697 10.8066 3.46693C11.6552 3.86415 12.3864 4.42387 13.0003 5.14609C13.6142 4.42387 14.3455 3.86415 15.1941 3.46693C16.0427 3.0697 16.9364 2.87109 17.8753 2.87109C19.5725 2.87109 20.9899 3.43984 22.1274 4.57734C23.2649 5.71484 23.8337 7.13221 23.8337 8.82943C23.8337 9.65998 23.6892 10.4725 23.4003 11.2669C23.1295 12.0614 22.642 12.9371 21.9378 13.894C21.2337 14.8329 20.2857 15.8982 19.0941 17.0898C17.9024 18.2815 16.3948 19.6989 14.5712 21.3419L13.0003 22.7503ZM13.0003 19.8253C14.7337 18.2725 16.16 16.9454 17.2795 15.844C18.3989 14.7246 19.2837 13.7586 19.9337 12.9461C20.5837 12.1155 21.0351 11.3843 21.2878 10.7523C21.5406 10.1023 21.667 9.46137 21.667 8.82943C21.667 7.74609 21.3059 6.84332 20.5837 6.1211C19.8614 5.39887 18.9587 5.03776 17.8753 5.03776C17.0267 5.03776 16.2413 5.28151 15.5191 5.76901C14.7969 6.23846 14.3003 6.84332 14.0295 7.58359H11.9712C11.7003 6.84332 11.2038 6.23846 10.4816 5.76901C9.75935 5.28151 8.97394 5.03776 8.12533 5.03776C7.04199 5.03776 6.13921 5.39887 5.41699 6.1211C4.69477 6.84332 4.33366 7.74609 4.33366 8.82943C4.33366 9.46137 4.46005 10.1023 4.71283 10.7523C4.9656 11.3843 5.41699 12.1155 6.06699 12.9461C6.71699 13.7586 7.60172 14.7246 8.72116 15.844C9.8406 16.9454 11.267 18.2725 13.0003 19.8253Z" fill="#2C2C2C"/>
</svg>
