<svg width="21" height="19" viewBox="0 0 21 19" fill="none" xmlns="http://www.w3.org/2000/svg">
<path d="M10.5 19.0004L9.05 17.7004C7.36667 16.1837 5.975 14.8754 4.875 13.7754C3.775 12.6754 2.9 11.6921 2.25 10.8254C1.6 9.94206 1.14167 9.13372 0.875 8.40039C0.625 7.66706 0.5 6.91706 0.5 6.15039C0.5 4.58372 1.025 3.27539 2.075 2.22539C3.125 1.17539 4.43333 0.650391 6 0.650391C6.86667 0.650391 7.69167 0.833724 8.475 1.20039C9.25833 1.56706 9.93333 2.08372 10.5 2.75039C11.0667 2.08372 11.7417 1.56706 12.525 1.20039C13.3083 0.833724 14.1333 0.650391 15 0.650391C16.5667 0.650391 17.875 1.17539 18.925 2.22539C19.975 3.27539 20.5 4.58372 20.5 6.15039C20.5 6.91706 20.3667 7.66706 20.1 8.40039C19.85 9.13372 19.4 9.94206 18.75 10.8254C18.1 11.6921 17.225 12.6754 16.125 13.7754C15.025 14.8754 13.6333 16.1837 11.95 17.7004L10.5 19.0004ZM10.5 16.3004C12.1 14.8671 13.4167 13.6421 14.45 12.6254C15.4833 11.5921 16.3 10.7004 16.9 9.95039C17.5 9.18373 17.9167 8.50873 18.15 7.92539C18.3833 7.32539 18.5 6.73373 18.5 6.15039C18.5 5.15039 18.1667 4.31706 17.5 3.65039C16.8333 2.98373 16 2.65039 15 2.65039C14.2167 2.65039 13.4917 2.87539 12.825 3.32539C12.1583 3.75872 11.7 4.31706 11.45 5.00039H9.55C9.3 4.31706 8.84167 3.75872 8.175 3.32539C7.50833 2.87539 6.78333 2.65039 6 2.65039C5 2.65039 4.16667 2.98373 3.5 3.65039C2.83333 4.31706 2.5 5.15039 2.5 6.15039C2.5 6.73373 2.61667 7.32539 2.85 7.92539C3.08333 8.50873 3.5 9.18373 4.1 9.95039C4.7 10.7004 5.51667 11.5921 6.55 12.6254C7.58333 13.6421 8.9 14.8671 10.5 16.3004Z" fill="#D9D9D9"/>
</svg>
