<svg width="27" height="25" viewBox="0 0 27 25" fill="none" xmlns="http://www.w3.org/2000/svg">
<path d="M7.12289 2.08404L3.90383 6.0416L3.69711 20.0402C3.68928 20.5706 3.90372 21.0822 4.29326 21.4625C4.6828 21.8428 5.21552 22.0606 5.77425 22.0681L20.5209 22.2643C21.0796 22.2717 21.6186 22.0682 22.0192 21.6984C22.4198 21.3286 22.6493 20.8229 22.6571 20.2925L22.8638 6.2939L19.7629 2.25224L7.12289 2.08404Z" stroke="#757575" stroke-width="2" stroke-linecap="round" stroke-linejoin="round"/>
<path d="M3.90332 6.04102L22.8633 6.29331" stroke="#757575" stroke-width="2" stroke-linecap="round" stroke-linejoin="round"/>
<path d="M17.538 10.2235C17.5223 11.2842 17.0634 12.2956 16.2622 13.0352C15.4609 13.7747 14.383 14.1819 13.2656 14.167C12.1481 14.1521 11.0827 13.7165 10.3036 12.9559C9.52454 12.1953 9.09566 11.1721 9.11133 10.1113" stroke="#757575" stroke-width="2" stroke-linecap="round" stroke-linejoin="round"/>
</svg>
